<?xml version="1.0" encoding="UTF-8"?>
<svg id="Layer_1" data-name="Layer 1" xmlns="http://www.w3.org/2000/svg" viewBox="0 0 297.2 98.8">
  <defs>
    <style>
      .cls-1 {
        fill: #0c2c65;
      }
    </style>
  </defs>
  <path class="cls-1" d="M54.3,12.8C30.5-.9,9.9,6.3,8.3,28.8c-1.6,22.5,17.7,56.3,40,69.1v.9C21.8,83.6-1.6,49.1,0,24.1,1.8-.9,28.1-6.9,54.6,8.3l-.3,4.5h0Z"/>
  <path class="cls-1" d="M49.8,76.7c11.9,6.8,22.2,3.2,23-8,.8-11.2-8.9-28.2-20-34.6v-.4c13.3,7.6,25,24.9,24.1,37.4s-14,15.5-27.2,7.9l.2-2.3h-.1Z"/>
  <path class="cls-1" d="M83.5,15.3h9.4l3.8,14.4c.4,1.5.6,2.1.9,3.6.2.7.8,3.7,1,4.3h.2c.5-2.9,1-5,1.7-8.1l3.8-14.3h9.5v34.5h-6.1v-18.6c0-2.5.2-6.5.3-9.8h-.2l-6.6,28.4h-4.8l-6.8-28.4h-.2c0,1.6.3,8.6.3,10.1v18.3h-6.1V15.3h-.1Z"/>
  <path class="cls-1" d="M121.6,26.9c0-7.9,3.9-12.4,11.4-12.4s4.8.4,7,2.3c2.9,2.5,3.2,6.7,3.3,9.5h-7c0-1.7-.1-5.5-3.6-5.5s-2,.4-2.7,1.1c-1.1,1.1-1.2,2.8-1.2,3.8v13.1c0,1.9,0,5.5,3.9,5.5s3.8-2.5,3.8-6.2h7.1c0,2.5,0,2.8-.3,4.2s-.7,3.9-3.4,6.2c-2.3,2-5.6,2.3-7,2.3-3.7,0-6.3-.9-8.3-3-1.3-1.4-3-3.3-3-10.4v-10.4h0v-.1Z"/>
  <path class="cls-1" d="M164.9,15.3l9.2,34.5h-6.8l-1.6-6.9h-9.8l-1.7,6.9h-6.8l9-34.5h8.5M160.7,21.4h-.2l-3.5,15.6h7.2l-3.5-15.6h0Z"/>
  <path class="cls-1" d="M85.9,80.5l.3,2.3h-2.6l-.3-2.3v-17.2h2.6v17.2Z"/>
  <path class="cls-1" d="M88,65.6h2.6v2.8h-2.6v-2.8ZM88,70.7h2.5v12.1h-2.5v-12.1Z"/>
  <path class="cls-1" d="M92.6,70.7h2.3l.3,1h.1c0,.1.1,0,.1,0,.5-.8,1.8-1.3,2.8-1.3,3.1,0,4.9,2.1,4.9,4.9v7.5h-2.6v-7.5c0-1.6-.9-2.6-2.6-2.6s-2.8,1.2-2.8,2.7v7.3h-2.6v-12.1h0l.1.1Z"/>
  <path class="cls-1" d="M106.7,77.4c0,1.8,1.3,3.4,3.5,3.4s2.6-.8,3-1.8l2.2,1c-1,1.8-2.8,3.1-5.3,3.1s-5.9-2.6-5.9-6.3,2.6-6.3,5.9-6.3,5.7,2.4,5.7,6.2l-.3.8h-8.8v-.1ZM106.9,75.1h6.2c-.1-1.3-1.4-2.4-3-2.4s-2.8,1-3.2,2.4h0Z"/>
  <path class="cls-1" d="M128.5,82.8h-2.3l-.3-1h-.1c0-.1-.1,0-.1,0-.8.8-2.1,1.3-3.4,1.3-3.4,0-6.2-2.6-6.2-6.3s2.8-6.3,6.2-6.3,2.6.5,3.4,1.3h.1c0,.1.1,0,.1,0l.3-1h2.3v12.1h0v-.1ZM122.4,72.8c-2.4,0-3.8,1.8-3.8,4s1.3,4,3.8,4,3.7-1.8,3.7-4-1.5-4-3.7-4Z"/>
  <path class="cls-1" d="M130.5,70.7h2.3l.3,1.3h.1c0,.1.1,0,.1,0,.8-1,1.8-1.5,2.8-1.5s.8,0,1.3.3v2.3h-1.5c-1.5,0-2.8,1.2-2.8,2.7v7h-2.6v-12.1h0Z"/>
  <path class="cls-1" d="M153.5,71.7c.6-.8,1.9-1.3,3-1.3,2.8,0,4.4,1.8,4.4,4.4v8h-2.6v-7.7c0-1.5-.8-2.3-2.1-2.3s-2.8,1.2-2.8,2.7v7.3h-2.6v-7.7c0-1.5-.8-2.3-2.1-2.3s-2.8,1.2-2.8,2.7v7.3h-2.6v-12.1h2.3l.3,1h.1c0,.1.1,0,.1,0,.5-.8,1.8-1.3,2.8-1.3,1.9,0,3.2.8,3.9,2.1l.6-.8h.1Z"/>
  <path class="cls-1" d="M168.2,70.4c3.3,0,6.3,2.6,6.3,6.3s-3,6.3-6.3,6.3-6.3-2.6-6.3-6.3,3-6.3,6.3-6.3ZM168.2,80.7c2.4,0,3.7-1.8,3.7-4s-1.3-4-3.7-4-3.7,1.8-3.7,4,1.3,4,3.7,4Z"/>
  <path class="cls-1" d="M174.1,70.7h2.3v-2.6l2-2.6h.5v5.1h2.6v2.3h-2.6v6.2c0,.8.5,1.3,1.3,1.3l1.5-.3v2.3l-1.4.3c-2.6,0-4-1.3-4-3.6v-6.2h-2.3v-2.3h0l.1.1Z"/>
  <path class="cls-1" d="M183.1,65.6h2.6v2.8h-2.6v-2.8ZM183.1,70.7h2.5v12.1h-2.5v-12.1Z"/>
  <path class="cls-1" d="M193.3,70.4c3.3,0,6.3,2.6,6.3,6.3s-3,6.3-6.3,6.3-6.3-2.6-6.3-6.3,3-6.3,6.3-6.3ZM193.3,80.7c2.4,0,3.7-1.8,3.7-4s-1.3-4-3.7-4-3.7,1.8-3.7,4,1.3,4,3.7,4Z"/>
  <path class="cls-1" d="M200.8,70.7h2.3l.3,1h.1c0,.1.1,0,.1,0,.5-.8,1.8-1.3,2.8-1.3,3.1,0,4.9,2.1,4.9,4.9v7.5h-2.6v-7.5c0-1.6-.9-2.6-2.6-2.6s-2.8,1.2-2.8,2.7v7.3h-2.6v-12.1h0l.1.1Z"/>
  <path class="cls-1" d="M218.3,70.7h2.3l.3,1.3h.1c0,.1.1,0,.1,0,.8-1,1.8-1.5,2.8-1.5s.8,0,1.3.3v2.3h-1.5c-1.5,0-2.8,1.2-2.8,2.7v7h-2.6v-12.1h0Z"/>
  <path class="cls-1" d="M231.1,70.4c3.3,0,6.3,2.6,6.3,6.3s-3,6.3-6.3,6.3-6.3-2.6-6.3-6.3,3-6.3,6.3-6.3ZM231.1,80.7c2.4,0,3.7-1.8,3.7-4s-1.3-4-3.7-4-3.7,1.8-3.7,4,1.3,4,3.7,4Z"/>
  <path class="cls-1" d="M238.6,63.2h2.5v8.5h.1c0,.1.1,0,.1,0,.8-.8,2.1-1.3,3.4-1.3,3.4,0,6.2,2.6,6.2,6.3s-2.8,6.3-6.2,6.3-2.6-.5-3.4-1.3h-.1c0-.1-.1,0-.1,0l-.2,1h-2.3v-19.5h0ZM244.7,80.7c2.4,0,3.7-1.8,3.7-4s-1.3-4-3.7-4-3.7,1.8-3.7,4,1.5,4,3.7,4Z"/>
  <path class="cls-1" d="M257.8,70.4c3.3,0,6.3,2.6,6.3,6.3s-3,6.3-6.3,6.3-6.3-2.6-6.3-6.3,3-6.3,6.3-6.3ZM257.8,80.7c2.4,0,3.7-1.8,3.7-4s-1.3-4-3.7-4-3.7,1.8-3.7,4,1.3,4,3.7,4Z"/>
  <path class="cls-1" d="M263.7,70.7h2.3v-2.6l2-2.6h.5v5.1h2.6v2.3h-2.6v6.2c0,.8.5,1.3,1.3,1.3l1.5-.3v2.3l-1.4.3c-2.6,0-4-1.3-4-3.6v-6.2h-2.3v-2.3h0l.1.1Z"/>
  <path class="cls-1" d="M272.7,65.6h2.6v2.8h-2.6v-2.8ZM272.7,70.7h2.5v12.1h-2.5v-12.1Z"/>
  <path class="cls-1" d="M282.9,80.7c1.5,0,2.7-1,3.1-2.1l2,1.3c-1,1.8-2.8,3.1-5.3,3.1s-6.2-2.6-6.2-6.3,2.9-6.3,6.2-6.3,4.2,1.3,5.2,3.1l-2,1.3c-.4-1-1.6-2.1-3.1-2.1-2.4,0-3.8,1.8-3.8,4s1.3,4,3.8,4h.1Z"/>
  <path class="cls-1" d="M288,79.5l2.3-.9c.1,1.3,1.2,2.2,2.4,2.2s1.9-.7,1.9-1.5-.5-1.1-1.5-1.3c-.4,0-.9-.2-1.3-.3-2.1-.5-3.5-1.8-3.5-3.7s2.2-3.6,4.2-3.6,4.1,1.4,4.4,3.6h-2.6c0-.8-.8-1.3-1.8-1.3s-1.8.6-1.8,1.3.6,1.2,1.5,1.4l1.3.3c2,.4,3.5,1.6,3.5,3.6s-1.9,3.7-4.4,3.7-4.2-1.4-4.8-3.6h0l.2.1Z"/>
</svg>